<svg width="657" height="290" viewBox="0 0 657 290" fill="none" xmlns="http://www.w3.org/2000/svg">
<path d="M655.724 148.096L485.715 23.096V50.596L638.521 162.096L655.724 148.096Z" fill="black" stroke="black"/>
<path d="M650.884 151.587L485.837 282.859L484.773 255.379L633.151 138.241L650.884 151.587Z" fill="black" stroke="black"/>
<path d="M0.816772 154.891L170.825 279.891V252.391L18.02 140.891L0.816772 154.891Z" fill="black" stroke="black"/>
<path d="M5.65655 151.4L170.703 20.1282L171.768 47.608L23.3895 164.746L5.65655 151.4Z" fill="black" stroke="black"/>
<path d="M335.268 30.596C398.764 30.596 450.167 81.4508 450.167 144.096C450.167 206.741 398.764 257.596 335.268 257.596C271.772 257.596 220.369 206.741 220.369 144.096C220.369 81.4509 271.772 30.5962 335.268 30.596Z" stroke="black" stroke-width="7"/>
<path d="M395.985 47.096L401.045 15.096L373.722 4.09601L344.882 29.096H311.487L281.634 4.09601L257.348 15.096V53.096L236.096 79.596L196.124 85.596L188.029 110.596L215.857 136.096L220.917 168.096L196.124 198.096L210.292 221.596H248.24" stroke="black" stroke-width="7"/>
<path d="M250.367 221.836L252.898 222.422" stroke="black" stroke-width="7" stroke-linecap="round"/>
<path d="M265.655 25.3455C265.655 28.5753 265.405 35.2007 264.719 36.5533C261.999 41.9205 263.679 22.5643 264.273 20.9966C264.549 20.2664 263.486 19.4743 263.416 18.6538C263.1 14.9959 270.101 13.2692 274.286 11.8152C276.146 11.1688 278.209 10.7468 280.423 10.9587C284.782 11.3758 287.645 15.4601 290.239 18.1096C292.761 20.6864 296.271 22.4718 300.059 23.8037C301.121 24.1774 302.03 25.326 302.256 26.1331C302.482 26.9402 301.909 27.5618 300.955 27.8821C296.148 29.4957 291.408 29.5231 287.174 31.3097C282.485 33.2881 275.743 36.5837 270.456 39.5279C264.592 42.794 262.348 46.1298 260.885 49.3172C260.544 50.0597 261.103 50.9305 261.767 51.0459C265.634 51.7178 270.209 45.5247 275.26 42.272C278.646 40.0906 282.643 38.9052 288.473 35.6552C292.688 33.306 297.986 31.6167 303.065 30.0464C307.041 28.8169 294.389 24.477 291.054 21.6345C289.073 19.9461 287.695 17.7275 286.084 16.3205C282.844 13.4893 276.177 15.8058 272.305 17.2465C270.694 17.8462 268.904 19.0888 267.12 20.9089C262.326 25.7999 262.963 36.5897 262.333 40.4532C262.182 41.38 262.204 42.3833 262.752 42.6163C266.691 44.2907 270.3 36.3315 275.005 32.2243C278.344 29.3092 284.386 28.2608 289.502 25.6823C291.186 24.8333 287.019 22.4556 285.643 21.4224C284.237 20.3661 281.624 19.8743 277.707 20.224C273.278 20.6194 270.534 22.7302 269.471 24.8145C268.813 26.1032 268.463 28.0998 268.709 29.1606C268.955 30.2214 269.947 30.3468 271.275 29.8173C276.715 26.4041 279.22 25.3746 281.314 25.2249C282.524 25.1475 284.033 25.0675 286.655 24.7853" stroke="black" stroke-width="7" stroke-linecap="round"/>
<path d="M393.532 39.6558C392.807 38.7081 389.464 36.6608 385.97 35.4445C382.152 34.1154 374.466 31.8398 365.893 30.1636C361.525 29.3097 357.374 28.7578 354.477 27.8701C349.769 26.4268 362.222 21.7855 366.024 18.961C371.616 14.8059 373.527 11.1765 377.408 7.22723C379.685 4.90997 382.859 11.4636 388.904 13.3518C391.317 14.1057 393.099 14.9698 394.434 16.0753C395.775 17.1858 395.368 23.8442 394.985 31.6482C394.86 34.21 393.837 33.8314 392.706 33.459C387.688 31.8057 383.066 31.0123 376.568 30.6331C371.444 30.3341 367.747 28.269 365.04 26.6065C364.239 26.1147 365.236 25.5753 366.353 25.2635C374.652 22.9473 386.706 26.3384 390.419 29.145C391.188 29.7265 392.098 29.8164 392.415 29.5002C394.508 27.4102 391.226 22.9565 389.201 20.0893C386.841 16.7484 381.686 15.917 377.064 14.2916C373.799 13.1436 370.594 16.2481 368.765 17.8994C367.939 18.6452 367.725 19.5896 368.065 20.1884C368.867 21.5994 376.435 21.5376 384.133 21.1233C385.844 20.615 383.097 19.5014 381.029 18.7602C378.962 18.019 377.656 17.6838 375.867 16.9322" stroke="black" stroke-width="7" stroke-linecap="round"/>
<path d="M231.464 85.4962C230.693 87.5931 228.1 92.9858 225.027 101.492C223.426 105.924 222.274 110.179 220.211 117.101C218.192 123.873 218.48 127.237 217.681 128.714C217.322 129.378 216.263 129.266 215.387 129.053C211.364 128.075 208.407 123.374 205.127 119.017C202.463 115.48 198.359 112.184 195.347 108.417C193.058 105.554 196.265 100.346 198.361 95.975C198.929 94.7898 199.372 93.2797 200.048 92.4097C202.311 89.4959 207.407 90.536 212.745 88.9085C218.785 87.0672 222.941 86.2159 227.616 85.6231C228.645 85.4927 229.353 84.9251 229.323 84.9174C226.643 84.2133 224.443 90.0182 222.516 93.9178C219.42 100.181 217.489 107.503 215.7 113.926C214.441 118.444 214.744 121.563 213.893 123.101C212.138 126.274 209.621 116.367 207.635 112.847C205.694 109.409 202.197 107.346 200.419 104.128C199.993 103.358 200.18 102.382 200.685 101.697C203.137 98.3669 208.203 97.1275 211.69 95.2071C213.606 94.1522 216.022 93.3679 215.734 92.6503C215.159 91.2182 209.843 92.3099 207.179 92.8732C204.515 93.4364 203.675 94.6376 203.117 95.7807C200.996 100.124 203.778 104.621 205.17 106.387C206.558 108.149 209.257 108.14 211.453 107.735C216.448 106.813 216.066 100.713 219.215 96.5517C219.961 95.5668 220.571 94.977 220.322 94.5526C220.074 94.1282 219.064 93.9833 218.112 94.0909C217.16 94.1984 216.297 94.5627 215.698 95.2369C213.199 98.0503 212.746 101.079 211.461 102.269C210.923 102.767 209.995 102.055 210.007 102.33C212.499 107.124 214.289 112.917 214.185 113.935C213.936 114.093 213.289 113.522 212.623 112.508" stroke="black" stroke-width="7" stroke-linecap="round"/>
<path d="M220.742 178.422C218.451 179.698 213.48 183.948 211.02 188.395C209.049 191.961 205.374 195.408 204.548 201.673C203.869 206.815 210.587 212.368 212.147 215.938C214.006 220.191 206.107 204.941 202.437 201.783C195.521 195.831 209.618 215.183 212.595 219.981C213.305 221.125 214.962 217.608 216.717 216.02C222.204 211.055 231.124 214.291 235.439 215.123C237.482 215.517 239.144 216.677 240.205 216.872C245.288 217.807 233.408 204.711 230.744 201.642C227.876 198.338 225.528 192.303 224.204 187.83C222.913 183.467 222.373 179.757 220.493 177.189C220.17 176.748 219.364 177.852 218.943 178.741C216.49 183.936 218.623 191.51 217.91 195.167C217.234 198.634 211.892 198.382 210.798 199.492C210.306 199.992 210.995 201.006 211.993 201.923C217.077 206.594 224.113 207.11 226.86 208.828C227.853 209.448 219.564 210.138 211.515 210.83C208.967 211.05 209.794 212.53 210.867 213.588C215.132 217.794 219.801 218.268 230.001 218.2C235.222 218.166 219.049 209.737 215.717 206.742C212.439 203.796 208.85 201.203 207.848 200.032C207.418 199.53 208.679 198.597 210.361 198.195C217.984 196.376 222.252 201.076 226.631 204.371C230.903 207.587 231.48 210.514 232.356 210.763C236.28 211.879 227.692 202.6 225.613 199.186C223.606 195.891 219.089 194.468 214.755 193.84C213.633 193.678 212.622 193.462 212.481 193.137C212.096 192.255 215.016 191.882 216.174 191.692C219.738 191.106 207.456 194.016 202.97 195.435C202.124 195.702 202.205 197.015 202.782 197.418C207.404 196.672 212.449 195.036 221.352 192.921C222.998 191.147 223.056 187.68 223.116 184.109" stroke="black" stroke-width="7" stroke-linecap="round"/>
<path d="M272.021 242.596L266.961 274.596L294.284 285.596L323.125 260.596H356.519L386.372 285.596L410.659 274.596V236.596L431.91 210.096L471.882 204.096L479.978 179.096L452.149 153.596L447.089 121.596L471.882 91.596L457.715 68.096H419.766" stroke="black" stroke-width="7"/>
<path d="M402.351 264.347C402.351 261.117 402.602 254.491 403.287 253.139C406.007 247.771 404.327 267.128 403.734 268.695C403.457 269.426 404.52 270.218 404.591 271.038C404.907 274.696 397.906 276.423 393.721 277.877C391.86 278.523 389.797 278.945 387.583 278.733C383.225 278.316 380.361 274.232 377.768 271.582C375.246 269.006 371.735 267.22 367.948 265.888C366.885 265.515 365.976 264.366 365.75 263.559C365.524 262.752 366.097 262.13 367.051 261.81C371.858 260.196 376.599 260.169 380.833 258.382C385.521 256.404 392.264 253.108 397.55 250.164C403.414 246.898 405.658 243.562 407.122 240.375C407.463 239.632 406.903 238.762 406.239 238.646C402.373 237.974 397.797 244.167 392.747 247.42C389.36 249.601 385.364 250.787 379.533 254.037C375.318 256.386 370.021 258.075 364.942 259.646C360.965 260.875 373.618 265.215 376.953 268.058C378.933 269.746 380.312 271.965 381.922 273.372C385.162 276.203 391.829 273.886 395.701 272.446C397.313 271.846 399.102 270.603 400.886 268.783C405.681 263.892 405.043 253.102 405.673 249.239C405.825 248.312 405.802 247.309 405.254 247.076C401.315 245.401 397.706 253.361 393.001 257.468C389.662 260.383 383.62 261.431 378.505 264.01C376.821 264.859 380.987 267.236 382.363 268.27C383.77 269.326 386.382 269.818 390.3 269.468C394.728 269.073 397.472 266.962 398.536 264.878C399.193 263.589 399.543 261.592 399.297 260.531C399.051 259.471 398.059 259.345 396.732 259.875C391.291 263.288 388.786 264.317 386.692 264.467C385.482 264.544 383.974 264.624 381.352 264.907" stroke="black" stroke-width="7" stroke-linecap="round"/>
<path d="M274.475 250.036C275.199 250.984 278.543 253.031 282.036 254.247C285.854 255.577 293.541 257.852 302.114 259.528C306.481 260.382 310.633 260.934 313.529 261.822C318.238 263.265 305.784 267.907 301.983 270.731C296.391 274.886 294.479 278.516 290.599 282.465C288.322 284.782 285.147 278.228 279.103 276.34C276.69 275.586 274.907 274.722 273.572 273.617C272.231 272.506 272.638 265.848 273.021 258.044C273.147 255.482 274.17 255.861 275.3 256.233C280.318 257.886 284.94 258.68 291.438 259.059C296.562 259.358 300.26 261.423 302.966 263.086C303.767 263.577 302.771 264.117 301.653 264.428C293.355 266.745 281.301 263.354 277.587 260.547C276.818 259.966 275.908 259.876 275.592 260.192C273.498 262.282 276.78 266.736 278.806 269.603C281.165 272.944 286.321 273.775 290.943 275.4C294.207 276.548 297.412 273.444 299.241 271.793C300.067 271.047 300.282 270.102 299.941 269.504C299.139 268.093 291.572 268.154 283.873 268.569C282.162 269.077 284.909 270.191 286.977 270.932C289.045 271.673 290.35 272.008 292.139 272.76" stroke="black" stroke-width="7" stroke-linecap="round"/>
<path d="M436.542 204.196C437.314 202.099 439.906 196.706 442.979 188.2C444.58 183.768 445.733 179.513 447.796 172.591C449.814 165.819 449.526 162.455 450.325 160.978C450.684 160.314 451.744 160.426 452.619 160.639C456.643 161.617 459.599 166.318 462.88 170.675C465.543 174.212 469.647 177.508 472.66 181.276C474.948 184.138 471.742 189.346 469.646 193.717C469.077 194.902 468.634 196.412 467.959 197.282C465.695 200.196 460.599 199.156 455.261 200.783C449.221 202.625 445.065 203.476 440.39 204.069C439.361 204.199 438.654 204.767 438.683 204.775C441.364 205.479 443.563 199.674 445.491 195.774C448.586 189.511 450.517 182.189 452.306 175.766C453.565 171.248 453.262 168.129 454.113 166.591C455.869 163.418 458.385 173.325 460.372 176.845C462.312 180.283 465.809 182.346 467.588 185.564C468.013 186.334 467.826 187.31 467.322 187.995C464.87 191.325 459.804 192.565 456.316 194.485C454.4 195.54 451.985 196.324 452.273 197.042C452.847 198.474 458.163 197.382 460.827 196.819C463.491 196.256 464.331 195.054 464.889 193.911C467.01 189.568 464.228 185.071 462.836 183.305C461.448 181.544 458.75 181.552 456.553 181.957C451.559 182.879 451.941 188.979 448.791 193.14C448.046 194.125 447.436 194.715 447.684 195.139C447.933 195.564 448.942 195.709 449.894 195.601C450.846 195.494 451.709 195.129 452.308 194.455C454.808 191.642 455.26 188.613 456.546 187.423C457.084 186.925 458.011 187.637 457.999 187.362C455.508 182.568 453.717 176.775 453.822 175.757C454.071 175.599 454.717 176.17 455.384 177.184" stroke="black" stroke-width="7" stroke-linecap="round"/>
<path d="M447.264 111.27C449.555 109.994 454.526 105.744 456.986 101.297C458.958 97.7313 462.632 94.2841 463.459 88.0191C464.137 82.8775 457.419 77.3242 455.859 73.7535C454.001 69.5009 461.899 84.7508 465.569 87.9093C472.485 93.8614 458.388 74.5093 455.412 69.7112C454.702 68.5669 453.044 72.0845 451.289 73.6724C445.803 78.6369 436.882 75.4009 432.568 74.5691C430.524 74.1751 428.863 73.0151 427.801 72.8198C422.718 71.8846 434.598 84.9805 437.263 88.0503C440.13 91.3536 442.478 97.3889 443.802 101.862C445.093 106.225 445.633 109.935 447.513 112.503C447.837 112.944 448.643 111.84 449.063 110.951C451.516 105.756 449.383 98.182 450.096 94.5253C450.773 91.0576 456.114 91.3098 457.208 90.1996C457.701 89.6998 457.011 88.6862 456.013 87.7689C450.93 83.0979 443.893 82.5819 441.146 80.8644C440.153 80.244 448.442 79.5545 456.492 78.8617C459.039 78.6424 458.213 77.1623 457.139 76.104C452.874 71.8983 448.205 71.4242 438.006 71.4918C432.784 71.5265 448.957 79.9551 452.289 82.9496C455.567 85.8958 459.157 88.489 460.159 89.6602C460.588 90.1621 459.328 91.0951 457.645 91.4966C450.022 93.3156 445.754 88.6157 441.376 85.3207C437.103 82.1051 436.526 79.1784 435.651 78.9294C431.727 77.8133 440.314 87.0925 442.394 90.5059C444.4 93.8005 448.917 95.2239 453.252 95.8517C454.373 96.0141 455.384 96.2302 455.526 96.5553C455.91 97.4374 452.99 97.8098 451.832 98.0002C448.268 98.5864 460.551 95.6756 465.036 94.2575C465.883 93.9899 465.801 92.6769 465.224 92.2737C460.602 93.0199 455.557 94.6565 446.655 96.7712C445.008 98.5455 444.95 102.012 444.89 105.583" stroke="black" stroke-width="7" stroke-linecap="round"/>
<path d="M291.645 249.455C291.392 249.455 285.699 249.455 278.303 249.455C275.059 249.455 286.227 251.378 290.05 253.182C290.311 253.306 286.799 251.644 284.634 249.911C283.985 249.391 285.109 248.86 286.318 248.726C288.993 248.432 292.298 250.016 294.371 251.86C296.797 254.019 284.667 248.367 279.899 244.676C278.24 243.392 288.458 248.511 294.4 253.611C295.844 255.318 294.097 255.235 291.518 254.586C288.939 253.936 285.581 252.723 281.702 250.447" stroke="black" stroke-width="7" stroke-linecap="round"/>
<path d="M279.082 245.944C279.082 246.192 279.554 247.336 279.937 249.234C280.112 250.102 279.182 250.827 278.565 250.848C275.645 250.943 276.225 246.133 275.833 245.452C275.249 244.436 275.522 248.463 275.592 249.354C275.805 252.061 274.321 243.649 273.681 242.896C273.398 242.916 273.196 243.752 272.899 243.809C272.603 243.867 272.218 243.122 271.821 241.305" stroke="black" stroke-width="7" stroke-linecap="round"/>
<path d="M322.25 259.658C321.871 259.658 320.795 259.658 319.001 259.804C317.165 260.241 315.25 260.903 313.42 261.66C312.553 262.057 311.815 262.48 310.858 262.915" stroke="black" stroke-width="7" stroke-linecap="round"/>
<path d="M362.217 257.85C364.538 259.443 369.116 262.534 370.143 263.459C366.612 263.17 362.865 261.538 361.888 260.651C361.876 260.306 362.847 260.175 365.635 260.481" stroke="black" stroke-width="7" stroke-linecap="round"/>
<path d="M367.145 79.096H316.294L299.344 170.176H339.2V211.096L367.145 142.896H339.2L367.145 79.096Z" fill="black" stroke="black"/>
</svg>
