<svg width="533" height="522" viewBox="0 0 533 522" fill="none" xmlns="http://www.w3.org/2000/svg">
<rect width="533" height="522" fill="white"/>
<path d="M225.019 147H278.658L268.646 222.356H323L225.019 375L260.063 262.932H210L225.019 147Z" stroke="black" stroke-width="3"/>
<path d="M111.844 237.031C113.49 237.031 115.125 237.146 116.75 237.375C118.396 237.583 119.969 237.844 121.469 238.156C122.99 238.448 124.427 238.74 125.781 239.031C127.135 239.323 128.354 239.531 129.438 239.656C129.188 240.406 129.062 241.729 129.062 243.625C129.062 247.312 129.615 250.51 130.719 253.219C130.594 253.594 130.208 253.823 129.562 253.906L128.219 251.031C127.552 249.594 126.75 248.177 125.812 246.781C124.875 245.365 123.75 244.104 122.438 243C121.125 241.875 119.594 240.969 117.844 240.281C116.115 239.594 114.115 239.25 111.844 239.25C109.885 239.25 108.146 239.573 106.625 240.219C105.104 240.865 103.771 241.74 102.625 242.844C101.479 243.927 100.51 245.198 99.7188 246.656C98.9271 248.094 98.2812 249.625 97.7812 251.25C97.3021 252.875 96.9479 254.542 96.7188 256.25C96.5104 257.958 96.4062 259.615 96.4062 261.219C96.4062 263.885 96.75 266.438 97.4375 268.875C98.1458 271.312 99.2396 273.469 100.719 275.344C102.198 277.198 104.073 278.677 106.344 279.781C108.635 280.885 111.365 281.438 114.531 281.438C120.594 281.438 125.177 279.542 128.281 275.75C128.615 275.75 128.885 275.844 129.094 276.031C129.323 276.219 129.438 276.448 129.438 276.719C128.438 278.198 127.219 279.479 125.781 280.562C124.365 281.646 122.854 282.542 121.25 283.25C119.646 283.938 118.021 284.448 116.375 284.781C114.75 285.115 113.24 285.281 111.844 285.281C110.323 285.281 108.677 285.115 106.906 284.781C105.156 284.469 103.396 283.938 101.625 283.188C99.875 282.438 98.1875 281.458 96.5625 280.25C94.9583 279.021 93.5312 277.521 92.2812 275.75C91.0312 273.958 90.0312 271.865 89.2812 269.469C88.5312 267.073 88.1562 264.323 88.1562 261.219C88.1562 258.094 88.5312 255.333 89.2812 252.938C90.0312 250.521 91.0312 248.417 92.2812 246.625C93.5521 244.833 95 243.333 96.625 242.125C98.2708 240.896 99.9688 239.906 101.719 239.156C103.469 238.385 105.219 237.844 106.969 237.531C108.719 237.198 110.344 237.031 111.844 237.031ZM134.938 238.062C139.604 238.229 143.229 238.312 145.812 238.312C148.396 238.312 152.021 238.229 156.688 238.062C156.771 238.396 156.812 238.625 156.812 238.75C156.812 238.979 156.771 239.24 156.688 239.531C155.729 239.615 154.948 239.708 154.344 239.812C153.76 239.896 153.031 240.042 152.156 240.25C151.302 240.458 150.646 240.76 150.188 241.156C149.729 241.531 149.49 241.99 149.469 242.531C149.198 248.698 149.062 254.396 149.062 259.625H149.969L167.688 242.531C167.958 242.135 168.094 241.833 168.094 241.625C168.094 241.229 167.979 240.906 167.75 240.656C167.542 240.385 167.146 240.188 166.562 240.062C166 239.917 165.427 239.812 164.844 239.75C164.281 239.688 163.438 239.615 162.312 239.531C162.229 239.156 162.188 238.896 162.188 238.75C162.188 238.625 162.229 238.396 162.312 238.062C167.021 238.229 170.115 238.312 171.594 238.312C172.615 238.312 175.479 238.229 180.188 238.062C180.271 238.396 180.312 238.625 180.312 238.75C180.312 238.896 180.271 239.156 180.188 239.531C179.292 239.615 178.573 239.698 178.031 239.781C177.51 239.865 176.833 240.01 176 240.219C175.188 240.406 174.406 240.698 173.656 241.094C172.927 241.469 172.219 241.948 171.531 242.531L155.406 257.875L175.25 278.062C178.583 281.042 181.51 282.594 184.031 282.719C184.115 283.052 184.156 283.333 184.156 283.562C184.156 283.812 184.115 284.042 184.031 284.25C181.01 284.083 177.677 284 174.031 284C170.76 284 166.812 284.083 162.188 284.25C162.104 284 162.062 283.75 162.062 283.5C162.062 283.229 162.104 282.969 162.188 282.719C164.208 282.656 165.542 282.479 166.188 282.188C166.854 281.875 167.188 281.344 167.188 280.594C167.188 280.323 167.115 280.062 166.969 279.812C166.823 279.562 166.562 279.24 166.188 278.844C165.833 278.427 165.615 278.167 165.531 278.062L150.281 262.25L149.062 262.312C149.062 266.771 149.177 272.573 149.406 279.719C149.427 280.26 149.667 280.729 150.125 281.125C150.583 281.5 151.24 281.792 152.094 282C152.969 282.208 153.698 282.365 154.281 282.469C154.885 282.552 155.667 282.635 156.625 282.719C156.708 282.969 156.75 283.25 156.75 283.562C156.75 283.729 156.708 283.938 156.625 284.188C153.083 284.062 149.458 284 145.75 284C142 284 138.375 284.062 134.875 284.188C134.792 283.938 134.75 283.729 134.75 283.562C134.75 283.208 134.792 282.927 134.875 282.719C135.5 282.656 136 282.604 136.375 282.562C136.75 282.521 137.26 282.448 137.906 282.344C138.573 282.24 139.104 282.125 139.5 282C139.917 281.854 140.344 281.677 140.781 281.469C141.219 281.26 141.542 281.01 141.75 280.719C141.979 280.427 142.094 280.094 142.094 279.719C142.344 273.198 142.469 266.625 142.469 260C142.469 253.25 142.365 247.427 142.156 242.531C142.135 241.99 141.896 241.531 141.438 241.156C140.979 240.76 140.312 240.458 139.438 240.25C138.583 240.042 137.854 239.896 137.25 239.812C136.667 239.708 135.896 239.615 134.938 239.531C134.854 239.156 134.812 238.896 134.812 238.75C134.812 238.542 134.854 238.312 134.938 238.062Z" fill="black"/>
<path d="M335.062 238.062C338.979 238.229 343.906 238.312 349.844 238.312L361.938 271.062H362.094L374.688 238.312H378.281C380.865 238.312 384.51 238.229 389.219 238.062C389.302 238.396 389.344 238.625 389.344 238.75C389.344 238.896 389.302 239.156 389.219 239.531C388.469 239.594 387.865 239.656 387.406 239.719C386.948 239.781 386.333 239.885 385.562 240.031C384.812 240.177 384.208 240.354 383.75 240.562C383.292 240.75 382.885 241.021 382.531 241.375C382.177 241.708 381.99 242.094 381.969 242.531C381.76 247.427 381.656 253.25 381.656 260C381.656 266.854 381.792 273.427 382.062 279.719C382.083 280.26 382.323 280.729 382.781 281.125C383.24 281.5 383.896 281.792 384.75 282C385.625 282.208 386.354 282.365 386.938 282.469C387.542 282.552 388.323 282.635 389.281 282.719C389.365 283.052 389.406 283.333 389.406 283.562C389.406 283.729 389.365 283.938 389.281 284.188C385.76 284.062 382.135 284 378.406 284C374.656 284 371.031 284.062 367.531 284.188C367.448 283.938 367.406 283.729 367.406 283.562C367.406 283.208 367.448 282.927 367.531 282.719C368.49 282.635 369.26 282.552 369.844 282.469C370.448 282.365 371.177 282.208 372.031 282C372.906 281.792 373.573 281.5 374.031 281.125C374.49 280.729 374.729 280.26 374.75 279.719C374.958 273.219 375.062 267.417 375.062 262.312C375.062 257.417 374.958 251.844 374.75 245.594H374.5L360.219 283.219H359.906L344.688 244.844H344.344C344.177 249.906 344.094 255.729 344.094 262.312C344.094 267.146 344.198 272.792 344.406 279.25C344.448 281.146 346.75 282.302 351.312 282.719C351.417 283.073 351.469 283.354 351.469 283.562C351.469 283.771 351.417 283.979 351.312 284.188C348 284.062 345.042 284 342.438 284C340.771 284 337.979 284.062 334.062 284.188C333.958 283.979 333.906 283.771 333.906 283.562C333.906 283.208 333.958 282.927 334.062 282.719C338.667 282.281 340.969 281.125 340.969 279.25C341.219 272.75 341.344 266.333 341.344 260C341.344 255.438 341.281 250.594 341.156 245.469C341.135 244.594 341.083 243.865 341 243.281C340.917 242.677 340.76 242.156 340.531 241.719C340.302 241.281 340.062 240.938 339.812 240.688C339.562 240.438 339.177 240.219 338.656 240.031C338.135 239.823 337.625 239.677 337.125 239.594C336.646 239.49 335.958 239.375 335.062 239.25C334.979 239.083 334.938 238.896 334.938 238.688C334.938 238.438 334.979 238.229 335.062 238.062ZM394.125 238.062C398.792 238.229 402.438 238.312 405.062 238.312C422.938 238.208 432.833 238.125 434.75 238.062C435.021 240.146 435.552 242.125 436.344 244C437.135 245.854 438.146 247.833 439.375 249.938C439.208 250.292 438.844 250.573 438.281 250.781C437.531 249.365 436.625 248.104 435.562 247C434.5 245.896 433.156 244.854 431.531 243.875C429.927 242.896 427.917 242.094 425.5 241.469C423.104 240.844 420.365 240.427 417.281 240.219H408.656C408.385 249.031 408.25 255.667 408.25 260.125H417.156C417.76 260.125 418.323 260.083 418.844 260C419.385 259.896 419.885 259.729 420.344 259.5C420.802 259.25 421.208 259.021 421.562 258.812C421.938 258.583 422.312 258.25 422.688 257.812C423.062 257.354 423.375 256.979 423.625 256.688C423.875 256.375 424.177 255.906 424.531 255.281C424.885 254.656 425.156 254.167 425.344 253.812C425.531 253.458 425.812 252.906 426.188 252.156C426.583 251.406 426.885 250.844 427.094 250.469C427.74 250.719 428.135 250.99 428.281 251.281C427.406 252.823 426.667 254.531 426.062 256.406C425.458 258.281 425.156 259.844 425.156 261.094C425.156 264.052 426.198 267.312 428.281 270.875C428.115 271.208 427.719 271.49 427.094 271.719C426.865 271.302 426.542 270.708 426.125 269.938C425.729 269.146 425.417 268.542 425.188 268.125C424.958 267.708 424.646 267.177 424.25 266.531C423.854 265.885 423.5 265.385 423.188 265.031C422.896 264.677 422.51 264.281 422.031 263.844C421.573 263.406 421.115 263.083 420.656 262.875C420.198 262.646 419.667 262.458 419.062 262.312C418.479 262.146 417.844 262.062 417.156 262.062H408.25C408.25 265.375 408.365 272.052 408.594 282.094H418.562C421.646 281.885 424.385 281.469 426.781 280.844C429.198 280.219 431.208 279.417 432.812 278.438C434.438 277.458 435.781 276.417 436.844 275.312C437.906 274.208 438.812 272.948 439.562 271.531C440.125 271.74 440.49 272.01 440.656 272.344C440.552 272.552 440.281 273.052 439.844 273.844C439.406 274.635 439.115 275.177 438.969 275.469C438.823 275.74 438.573 276.229 438.219 276.938C437.885 277.625 437.635 278.188 437.469 278.625C437.302 279.042 437.104 279.573 436.875 280.219C436.667 280.865 436.49 281.5 436.344 282.125C436.219 282.729 436.115 283.354 436.031 284H408.594C402.948 284 398.104 284.062 394.062 284.188C393.979 283.938 393.938 283.729 393.938 283.562C393.938 283.417 393.979 283.135 394.062 282.719C395.021 282.635 395.792 282.552 396.375 282.469C396.979 282.365 397.708 282.208 398.562 282C399.438 281.792 400.104 281.5 400.562 281.125C401.021 280.729 401.26 280.26 401.281 279.719C401.531 273.198 401.656 266.625 401.656 260C401.656 253.25 401.552 247.427 401.344 242.531C401.323 241.99 401.083 241.531 400.625 241.156C400.167 240.76 399.5 240.458 398.625 240.25C397.771 240.042 397.042 239.896 396.438 239.812C395.854 239.708 395.083 239.615 394.125 239.531C394.042 239.156 394 238.896 394 238.75C394 238.625 394.042 238.396 394.125 238.062Z" fill="black"/>
</svg>
