<svg width="815" height="447" viewBox="0 0 815 447" fill="none" xmlns="http://www.w3.org/2000/svg">
<g clip-path="url(#clip0_20_3)">
<rect width="815" height="447" fill="white"/>
<path d="M469.125 228.125C476.958 228.458 486.812 228.625 498.688 228.625L522.875 294.125H523.188L548.375 228.625H555.562C560.729 228.625 568.021 228.458 577.438 228.125C577.604 228.792 577.688 229.25 577.688 229.5C577.688 229.792 577.604 230.312 577.438 231.062C575.938 231.188 574.729 231.312 573.812 231.438C572.896 231.562 571.667 231.771 570.125 232.062C568.625 232.354 567.417 232.708 566.5 233.125C565.583 233.5 564.771 234.042 564.062 234.75C563.354 235.417 562.979 236.188 562.938 237.062C562.521 246.854 562.312 258.5 562.312 272C562.312 285.708 562.583 298.854 563.125 311.438C563.167 312.521 563.646 313.458 564.562 314.25C565.479 315 566.792 315.583 568.5 316C570.25 316.417 571.708 316.729 572.875 316.938C574.083 317.104 575.646 317.271 577.562 317.438C577.729 318.104 577.812 318.667 577.812 319.125C577.812 319.458 577.729 319.875 577.562 320.375C570.521 320.125 563.271 320 555.812 320C548.312 320 541.062 320.125 534.062 320.375C533.896 319.875 533.812 319.458 533.812 319.125C533.812 318.417 533.896 317.854 534.062 317.438C535.979 317.271 537.521 317.104 538.688 316.938C539.896 316.729 541.354 316.417 543.062 316C544.812 315.583 546.146 315 547.062 314.25C547.979 313.458 548.458 312.521 548.5 311.438C548.917 298.438 549.125 286.833 549.125 276.625C549.125 266.833 548.917 255.688 548.5 243.188H548L519.438 318.438H518.812L488.375 241.688H487.688C487.354 251.812 487.188 263.458 487.188 276.625C487.188 286.292 487.396 297.583 487.812 310.5C487.896 314.292 492.5 316.604 501.625 317.438C501.833 318.146 501.938 318.708 501.938 319.125C501.938 319.542 501.833 319.958 501.625 320.375C495 320.125 489.083 320 483.875 320C480.542 320 474.958 320.125 467.125 320.375C466.917 319.958 466.812 319.542 466.812 319.125C466.812 318.417 466.917 317.854 467.125 317.438C476.333 316.562 480.938 314.25 480.938 310.5C481.438 297.5 481.688 284.667 481.688 272C481.688 262.875 481.562 253.188 481.312 242.938C481.271 241.188 481.167 239.729 481 238.562C480.833 237.354 480.521 236.312 480.062 235.438C479.604 234.562 479.125 233.875 478.625 233.375C478.125 232.875 477.354 232.438 476.312 232.062C475.271 231.646 474.25 231.354 473.25 231.188C472.292 230.979 470.917 230.75 469.125 230.5C468.958 230.167 468.875 229.792 468.875 229.375C468.875 228.875 468.958 228.458 469.125 228.125ZM587.25 228.125C596.583 228.458 603.875 228.625 609.125 228.625C644.875 228.417 664.667 228.25 668.5 228.125C669.042 232.292 670.104 236.25 671.688 240C673.271 243.708 675.292 247.667 677.75 251.875C677.417 252.583 676.688 253.146 675.562 253.562C674.062 250.729 672.25 248.208 670.125 246C668 243.792 665.312 241.708 662.062 239.75C658.854 237.792 654.833 236.188 650 234.938C645.208 233.688 639.729 232.854 633.562 232.438H616.312C615.771 250.062 615.5 263.333 615.5 272.25H633.312C634.521 272.25 635.646 272.167 636.688 272C637.771 271.792 638.771 271.458 639.688 271C640.604 270.5 641.417 270.042 642.125 269.625C642.875 269.167 643.625 268.5 644.375 267.625C645.125 266.708 645.75 265.958 646.25 265.375C646.75 264.75 647.354 263.812 648.062 262.562C648.771 261.312 649.312 260.333 649.688 259.625C650.062 258.917 650.625 257.812 651.375 256.312C652.167 254.812 652.771 253.688 653.188 252.938C654.479 253.438 655.271 253.979 655.562 254.562C653.812 257.646 652.333 261.062 651.125 264.812C649.917 268.562 649.312 271.688 649.312 274.188C649.312 280.104 651.396 286.625 655.562 293.75C655.229 294.417 654.438 294.979 653.188 295.438C652.729 294.604 652.083 293.417 651.25 291.875C650.458 290.292 649.833 289.083 649.375 288.25C648.917 287.417 648.292 286.354 647.5 285.062C646.708 283.771 646 282.771 645.375 282.062C644.792 281.354 644.021 280.562 643.062 279.688C642.146 278.812 641.229 278.167 640.312 277.75C639.396 277.292 638.333 276.917 637.125 276.625C635.958 276.292 634.688 276.125 633.312 276.125H615.5C615.5 282.75 615.729 296.104 616.188 316.188H636.125C642.292 315.771 647.771 314.938 652.562 313.688C657.396 312.438 661.417 310.833 664.625 308.875C667.875 306.917 670.562 304.833 672.688 302.625C674.812 300.417 676.625 297.896 678.125 295.062C679.25 295.479 679.979 296.021 680.312 296.688C680.104 297.104 679.562 298.104 678.688 299.688C677.812 301.271 677.229 302.354 676.938 302.938C676.646 303.479 676.146 304.458 675.438 305.875C674.771 307.25 674.271 308.375 673.938 309.25C673.604 310.083 673.208 311.146 672.75 312.438C672.333 313.729 671.979 315 671.688 316.25C671.438 317.458 671.229 318.708 671.062 320H616.188C604.896 320 595.208 320.125 587.125 320.375C586.958 319.875 586.875 319.458 586.875 319.125C586.875 318.833 586.958 318.271 587.125 317.438C589.042 317.271 590.583 317.104 591.75 316.938C592.958 316.729 594.417 316.417 596.125 316C597.875 315.583 599.208 315 600.125 314.25C601.042 313.458 601.521 312.521 601.562 311.438C602.062 298.396 602.312 285.25 602.312 272C602.312 258.5 602.104 246.854 601.688 237.062C601.646 235.979 601.167 235.062 600.25 234.312C599.333 233.521 598 232.917 596.25 232.5C594.542 232.083 593.083 231.792 591.875 231.625C590.708 231.417 589.167 231.229 587.25 231.062C587.083 230.312 587 229.792 587 229.5C587 229.25 587.083 228.792 587.25 228.125Z" fill="black"/>
<path d="M25 261L162 154L168 165L43 261L168 361L162 371L25 261Z" fill="black" stroke="black"/>
<path d="M805 261L668 154L662 165L787 261L662 361L668 371L805 261Z" fill="black" stroke="black"/>
<path d="M376.5 190H414L398.5 250.5H450L372.5 350.5L405.5 272.5H359L376.5 190Z" fill="black" stroke="black"/>
<path d="M194.688 222.062C197.979 222.062 201.25 222.292 204.5 222.75C207.792 223.167 210.938 223.688 213.938 224.312C216.979 224.896 219.854 225.479 222.562 226.062C225.271 226.646 227.708 227.062 229.875 227.312C229.375 228.812 229.125 231.458 229.125 235.25C229.125 242.625 230.229 249.021 232.438 254.438C232.188 255.188 231.417 255.646 230.125 255.812L227.438 250.062C226.104 247.188 224.5 244.354 222.625 241.562C220.75 238.729 218.5 236.208 215.875 234C213.25 231.75 210.188 229.938 206.688 228.562C203.229 227.188 199.229 226.5 194.688 226.5C190.771 226.5 187.292 227.146 184.25 228.438C181.208 229.729 178.542 231.479 176.25 233.688C173.958 235.854 172.021 238.396 170.438 241.312C168.854 244.188 167.562 247.25 166.562 250.5C165.604 253.75 164.896 257.083 164.438 260.5C164.021 263.917 163.812 267.229 163.812 270.438C163.812 275.771 164.5 280.875 165.875 285.75C167.292 290.625 169.479 294.938 172.438 298.688C175.396 302.396 179.146 305.354 183.688 307.562C188.271 309.771 193.729 310.875 200.062 310.875C212.188 310.875 221.354 307.083 227.562 299.5C228.229 299.5 228.771 299.688 229.188 300.062C229.646 300.438 229.875 300.896 229.875 301.438C227.875 304.396 225.438 306.958 222.562 309.125C219.729 311.292 216.708 313.083 213.5 314.5C210.292 315.875 207.042 316.896 203.75 317.562C200.5 318.229 197.479 318.562 194.688 318.562C191.646 318.562 188.354 318.229 184.812 317.562C181.312 316.938 177.792 315.875 174.25 314.375C170.75 312.875 167.375 310.917 164.125 308.5C160.917 306.042 158.062 303.042 155.562 299.5C153.062 295.917 151.062 291.729 149.562 286.938C148.062 282.146 147.312 276.646 147.312 270.438C147.312 264.188 148.062 258.667 149.562 253.875C151.062 249.042 153.062 244.833 155.562 241.25C158.104 237.667 161 234.667 164.25 232.25C167.542 229.792 170.938 227.812 174.438 226.312C177.938 224.771 181.438 223.688 184.938 223.062C188.438 222.396 191.688 222.062 194.688 222.062ZM240.875 224.125C250.208 224.458 257.458 224.625 262.625 224.625C267.792 224.625 275.042 224.458 284.375 224.125C284.542 224.792 284.625 225.25 284.625 225.5C284.625 225.958 284.542 226.479 284.375 227.062C282.458 227.229 280.896 227.417 279.688 227.625C278.521 227.792 277.062 228.083 275.312 228.5C273.604 228.917 272.292 229.521 271.375 230.312C270.458 231.062 269.979 231.979 269.938 233.062C269.396 245.396 269.125 256.792 269.125 267.25H270.938L306.375 233.062C306.917 232.271 307.188 231.667 307.188 231.25C307.188 230.458 306.958 229.812 306.5 229.312C306.083 228.771 305.292 228.375 304.125 228.125C303 227.833 301.854 227.625 300.688 227.5C299.562 227.375 297.875 227.229 295.625 227.062C295.458 226.312 295.375 225.792 295.375 225.5C295.375 225.25 295.458 224.792 295.625 224.125C305.042 224.458 311.229 224.625 314.188 224.625C316.229 224.625 321.958 224.458 331.375 224.125C331.542 224.792 331.625 225.25 331.625 225.5C331.625 225.792 331.542 226.312 331.375 227.062C329.583 227.229 328.146 227.396 327.062 227.562C326.021 227.729 324.667 228.021 323 228.438C321.375 228.812 319.812 229.396 318.312 230.188C316.854 230.938 315.438 231.896 314.062 233.062L281.812 263.75L321.5 304.125C328.167 310.083 334.021 313.188 339.062 313.438C339.229 314.104 339.312 314.667 339.312 315.125C339.312 315.625 339.229 316.083 339.062 316.5C333.021 316.167 326.354 316 319.062 316C312.521 316 304.625 316.167 295.375 316.5C295.208 316 295.125 315.5 295.125 315C295.125 314.458 295.208 313.938 295.375 313.438C299.417 313.312 302.083 312.958 303.375 312.375C304.708 311.75 305.375 310.688 305.375 309.188C305.375 308.646 305.229 308.125 304.938 307.625C304.646 307.125 304.125 306.479 303.375 305.688C302.667 304.854 302.229 304.333 302.062 304.125L271.562 272.5L269.125 272.625C269.125 281.542 269.354 293.146 269.812 307.438C269.854 308.521 270.333 309.458 271.25 310.25C272.167 311 273.479 311.583 275.188 312C276.938 312.417 278.396 312.729 279.562 312.938C280.771 313.104 282.333 313.271 284.25 313.438C284.417 313.938 284.5 314.5 284.5 315.125C284.5 315.458 284.417 315.875 284.25 316.375C277.167 316.125 269.917 316 262.5 316C255 316 247.75 316.125 240.75 316.375C240.583 315.875 240.5 315.458 240.5 315.125C240.5 314.417 240.583 313.854 240.75 313.438C242 313.312 243 313.208 243.75 313.125C244.5 313.042 245.521 312.896 246.812 312.688C248.146 312.479 249.208 312.25 250 312C250.833 311.708 251.688 311.354 252.562 310.938C253.438 310.521 254.083 310.021 254.5 309.438C254.958 308.854 255.188 308.188 255.188 307.438C255.688 294.396 255.938 281.25 255.938 268C255.938 254.5 255.729 242.854 255.312 233.062C255.271 231.979 254.792 231.062 253.875 230.312C252.958 229.521 251.625 228.917 249.875 228.5C248.167 228.083 246.708 227.792 245.5 227.625C244.333 227.417 242.792 227.229 240.875 227.062C240.708 226.312 240.625 225.792 240.625 225.5C240.625 225.083 240.708 224.625 240.875 224.125Z" fill="black"/>
</g>
<defs>
<clipPath id="clip0_20_3">
<rect width="815" height="447" fill="white"/>
</clipPath>
</defs>
</svg>
