<svg width="815" height="418" viewBox="0 0 815 418" fill="none" xmlns="http://www.w3.org/2000/svg">
<rect width="815" height="418" fill="white"/>
<path d="M46 226.673L190.552 335.795V311.788L60.6273 214.451L46 226.673Z" fill="black" stroke="black"/>
<path d="M50.0944 223.626L190.447 109L191.348 132.989L65.1696 235.274L50.0944 223.626Z" fill="black" stroke="black"/>
<path d="M794 226.673L648.478 335.795V311.788L779.275 214.451L794 226.673Z" fill="black" stroke="black"/>
<path d="M789.878 223.626L648.584 109L647.677 132.989L774.702 235.274L789.878 223.626Z" fill="black" stroke="black"/>
<path d="M486.125 175.875H510.375L536 238.438H537.062L562.75 175.875H587.188V269H567.875V208.375H567.188L543 268.562H529.938L506 208.25H505.188V269H486.125V175.875ZM603.375 269V175.875H666.125V192.125H623V214H662.812V229.938H623V252.75H666.25V269H603.375Z" fill="black"/>
<path d="M206.812 270.25C198.521 270.25 191.104 268.375 184.562 264.625C178.021 260.875 172.854 255.438 169.062 248.312C165.312 241.188 163.438 232.583 163.438 222.5C163.438 212.333 165.333 203.688 169.125 196.562C172.958 189.438 178.146 184 184.688 180.25C191.271 176.5 198.646 174.625 206.812 174.625C214.021 174.625 220.5 175.958 226.25 178.625C232.042 181.292 236.771 185.146 240.438 190.188C244.104 195.229 246.354 201.333 247.188 208.5H227.312C226.562 203.375 224.375 199.354 220.75 196.438C217.125 193.479 212.625 192 207.25 192C200.083 192 194.312 194.667 189.938 200C185.562 205.292 183.375 212.792 183.375 222.5C183.375 232.417 185.562 239.958 189.938 245.125C194.354 250.292 200.104 252.875 207.188 252.875C212.396 252.875 216.812 251.5 220.438 248.75C224.104 246 226.396 242.146 227.312 237.188H247.188C246.479 242.896 244.438 248.271 241.062 253.312C237.729 258.354 233.167 262.438 227.375 265.562C221.625 268.688 214.771 270.25 206.812 270.25ZM261.375 269V175.875H281V216.938H282.188L315.75 175.875H339.312L304.812 217.562L339.75 269H316.125L290.688 230.75L281 242.562V269H261.375Z" fill="black"/>
<path d="M378.019 151H431.658L421.646 207.186H476L378.019 321L413.063 237.441H363L378.019 151Z" fill="black" stroke="black"/>
</svg>
